<mxfile host="app.diagrams.net" modified="2024-04-26T10:53:50.308Z" agent="Mozilla/5.0 (Windows NT 10.0; Win64; x64) AppleWebKit/537.36 (KHTML, like Gecko) Chrome/124.0.0.0 Safari/537.36" etag="vrbqKkpSb6fWKx_DFB2z" version="24.3.0" type="device" pages="3">
  <diagram name="Página-1" id="SFrglf0sYDVVaXXvUH9e">
    <mxGraphModel dx="1977" dy="490" grid="1" gridSize="10" guides="1" tooltips="1" connect="1" arrows="1" fold="1" page="1" pageScale="1" pageWidth="827" pageHeight="1169" math="0" shadow="0">
      <root>
        <mxCell id="0" />
        <mxCell id="1" parent="0" />
        <mxCell id="OqWR8q6ZAvW1BArrp61l-6" style="rounded=0;orthogonalLoop=1;jettySize=auto;html=1;exitX=0.5;exitY=0.5;exitDx=0;exitDy=0;exitPerimeter=0;entryX=0;entryY=0.5;entryDx=0;entryDy=0;" parent="1" source="OqWR8q6ZAvW1BArrp61l-1" target="OqWR8q6ZAvW1BArrp61l-3" edge="1">
          <mxGeometry relative="1" as="geometry" />
        </mxCell>
        <mxCell id="OqWR8q6ZAvW1BArrp61l-7" style="rounded=0;orthogonalLoop=1;jettySize=auto;html=1;exitX=1;exitY=1;exitDx=0;exitDy=0;exitPerimeter=0;entryX=0;entryY=0.5;entryDx=0;entryDy=0;" parent="1" source="OqWR8q6ZAvW1BArrp61l-1" target="OqWR8q6ZAvW1BArrp61l-4" edge="1">
          <mxGeometry relative="1" as="geometry" />
        </mxCell>
        <mxCell id="IKTK35JPIuyVhTVVb0rU-3" style="rounded=0;orthogonalLoop=1;jettySize=auto;html=1;exitX=1;exitY=1;exitDx=0;exitDy=0;exitPerimeter=0;entryX=0;entryY=0.5;entryDx=0;entryDy=0;" parent="1" source="OqWR8q6ZAvW1BArrp61l-1" target="IKTK35JPIuyVhTVVb0rU-2" edge="1">
          <mxGeometry relative="1" as="geometry" />
        </mxCell>
        <mxCell id="IKTK35JPIuyVhTVVb0rU-6" style="rounded=0;orthogonalLoop=1;jettySize=auto;html=1;exitX=1;exitY=1;exitDx=0;exitDy=0;exitPerimeter=0;" parent="1" source="OqWR8q6ZAvW1BArrp61l-1" target="IKTK35JPIuyVhTVVb0rU-5" edge="1">
          <mxGeometry relative="1" as="geometry" />
        </mxCell>
        <mxCell id="OqWR8q6ZAvW1BArrp61l-1" value="Admin" style="shape=umlActor;verticalLabelPosition=bottom;verticalAlign=top;html=1;outlineConnect=0;" parent="1" vertex="1">
          <mxGeometry x="-130" y="330" width="30" height="60" as="geometry" />
        </mxCell>
        <mxCell id="OqWR8q6ZAvW1BArrp61l-20" style="rounded=0;orthogonalLoop=1;jettySize=auto;html=1;exitX=1;exitY=0.5;exitDx=0;exitDy=0;entryX=0.15;entryY=0.05;entryDx=0;entryDy=0;entryPerimeter=0;" parent="1" source="OqWR8q6ZAvW1BArrp61l-2" target="OqWR8q6ZAvW1BArrp61l-54" edge="1">
          <mxGeometry relative="1" as="geometry">
            <mxPoint x="393.3784433422509" y="303.65544925601944" as="targetPoint" />
          </mxGeometry>
        </mxCell>
        <mxCell id="OqWR8q6ZAvW1BArrp61l-2" value="Alta de autopartes" style="ellipse;whiteSpace=wrap;html=1;" parent="1" vertex="1">
          <mxGeometry x="170" y="190" width="90" height="60" as="geometry" />
        </mxCell>
        <mxCell id="OqWR8q6ZAvW1BArrp61l-21" style="rounded=0;orthogonalLoop=1;jettySize=auto;html=1;exitX=1;exitY=0.5;exitDx=0;exitDy=0;entryX=0;entryY=0.3;entryDx=0;entryDy=0;" parent="1" source="OqWR8q6ZAvW1BArrp61l-3" target="OqWR8q6ZAvW1BArrp61l-54" edge="1">
          <mxGeometry relative="1" as="geometry">
            <mxPoint x="380" y="325" as="targetPoint" />
          </mxGeometry>
        </mxCell>
        <mxCell id="OqWR8q6ZAvW1BArrp61l-3" value="Modificacion de autopartes" style="ellipse;whiteSpace=wrap;html=1;" parent="1" vertex="1">
          <mxGeometry x="170" y="270" width="90" height="60" as="geometry" />
        </mxCell>
        <mxCell id="OqWR8q6ZAvW1BArrp61l-22" style="rounded=0;orthogonalLoop=1;jettySize=auto;html=1;exitX=1;exitY=0.5;exitDx=0;exitDy=0;entryX=0;entryY=0.5;entryDx=0;entryDy=0;" parent="1" source="OqWR8q6ZAvW1BArrp61l-4" target="OqWR8q6ZAvW1BArrp61l-54" edge="1">
          <mxGeometry relative="1" as="geometry">
            <mxPoint x="393.3784433422509" y="346.3445507439807" as="targetPoint" />
          </mxGeometry>
        </mxCell>
        <mxCell id="OqWR8q6ZAvW1BArrp61l-4" value="Baja de autopartes" style="ellipse;whiteSpace=wrap;html=1;" parent="1" vertex="1">
          <mxGeometry x="170" y="345" width="90" height="60" as="geometry" />
        </mxCell>
        <mxCell id="OqWR8q6ZAvW1BArrp61l-5" style="rounded=0;orthogonalLoop=1;jettySize=auto;html=1;exitX=0.75;exitY=0.1;exitDx=0;exitDy=0;exitPerimeter=0;entryX=-0.033;entryY=0.691;entryDx=0;entryDy=0;entryPerimeter=0;" parent="1" source="OqWR8q6ZAvW1BArrp61l-1" target="OqWR8q6ZAvW1BArrp61l-2" edge="1">
          <mxGeometry relative="1" as="geometry" />
        </mxCell>
        <mxCell id="OqWR8q6ZAvW1BArrp61l-8" value="Accion de adm" style="shape=umlFrame;whiteSpace=wrap;html=1;pointerEvents=0;" parent="1" vertex="1">
          <mxGeometry x="70" y="180" width="320" height="430" as="geometry" />
        </mxCell>
        <mxCell id="OqWR8q6ZAvW1BArrp61l-11" value="Admin" style="shape=umlActor;verticalLabelPosition=bottom;verticalAlign=top;html=1;outlineConnect=0;" parent="1" vertex="1">
          <mxGeometry x="593" y="270" width="30" height="60" as="geometry" />
        </mxCell>
        <mxCell id="OqWR8q6ZAvW1BArrp61l-18" style="rounded=0;orthogonalLoop=1;jettySize=auto;html=1;exitX=1;exitY=0;exitDx=0;exitDy=0;entryX=0;entryY=0.5;entryDx=0;entryDy=0;" parent="1" source="OqWR8q6ZAvW1BArrp61l-12" target="OqWR8q6ZAvW1BArrp61l-13" edge="1">
          <mxGeometry relative="1" as="geometry" />
        </mxCell>
        <mxCell id="OqWR8q6ZAvW1BArrp61l-12" value="Ingresar datos" style="ellipse;whiteSpace=wrap;html=1;" parent="1" vertex="1">
          <mxGeometry x="683" y="290" width="90" height="60" as="geometry" />
        </mxCell>
        <mxCell id="OqWR8q6ZAvW1BArrp61l-26" style="rounded=0;orthogonalLoop=1;jettySize=auto;html=1;exitX=1;exitY=0.5;exitDx=0;exitDy=0;entryX=0;entryY=0.5;entryDx=0;entryDy=0;" parent="1" source="OqWR8q6ZAvW1BArrp61l-13" target="OqWR8q6ZAvW1BArrp61l-25" edge="1">
          <mxGeometry relative="1" as="geometry" />
        </mxCell>
        <mxCell id="OqWR8q6ZAvW1BArrp61l-13" value="Comprobar la existencia de los datos" style="ellipse;whiteSpace=wrap;html=1;" parent="1" vertex="1">
          <mxGeometry x="863" y="220" width="100" height="70" as="geometry" />
        </mxCell>
        <mxCell id="OqWR8q6ZAvW1BArrp61l-27" style="edgeStyle=none;rounded=0;orthogonalLoop=1;jettySize=auto;html=1;exitX=1;exitY=0.5;exitDx=0;exitDy=0;entryX=0;entryY=1;entryDx=0;entryDy=0;" parent="1" source="OqWR8q6ZAvW1BArrp61l-14" target="OqWR8q6ZAvW1BArrp61l-25" edge="1">
          <mxGeometry relative="1" as="geometry" />
        </mxCell>
        <mxCell id="OqWR8q6ZAvW1BArrp61l-14" value="&lt;font style=&quot;font-size: 11px;&quot;&gt;Que los datos sean validos y esten todos los campos completos&lt;/font&gt;" style="ellipse;whiteSpace=wrap;html=1;" parent="1" vertex="1">
          <mxGeometry x="848" y="320" width="130" height="85" as="geometry" />
        </mxCell>
        <mxCell id="OqWR8q6ZAvW1BArrp61l-16" value="&lt;font style=&quot;font-size: 11px;&quot;&gt;Alta Productos&lt;/font&gt;" style="shape=umlFrame;whiteSpace=wrap;html=1;pointerEvents=0;" parent="1" vertex="1">
          <mxGeometry x="573" y="180" width="567" height="260" as="geometry" />
        </mxCell>
        <mxCell id="OqWR8q6ZAvW1BArrp61l-17" style="rounded=0;orthogonalLoop=1;jettySize=auto;html=1;entryX=0;entryY=0.5;entryDx=0;entryDy=0;" parent="1" source="OqWR8q6ZAvW1BArrp61l-11" target="OqWR8q6ZAvW1BArrp61l-12" edge="1">
          <mxGeometry relative="1" as="geometry">
            <mxPoint x="623" y="312.2" as="sourcePoint" />
            <mxPoint x="727" y="287.2" as="targetPoint" />
          </mxGeometry>
        </mxCell>
        <mxCell id="OqWR8q6ZAvW1BArrp61l-19" style="rounded=0;orthogonalLoop=1;jettySize=auto;html=1;exitX=1;exitY=0.5;exitDx=0;exitDy=0;entryX=0.084;entryY=0.736;entryDx=0;entryDy=0;entryPerimeter=0;" parent="1" source="OqWR8q6ZAvW1BArrp61l-12" target="OqWR8q6ZAvW1BArrp61l-14" edge="1">
          <mxGeometry relative="1" as="geometry" />
        </mxCell>
        <mxCell id="OqWR8q6ZAvW1BArrp61l-25" value="Añadir datos a stock" style="ellipse;whiteSpace=wrap;html=1;" parent="1" vertex="1">
          <mxGeometry x="1030" y="260" width="100" height="70" as="geometry" />
        </mxCell>
        <mxCell id="OqWR8q6ZAvW1BArrp61l-28" value="Admin" style="shape=umlActor;verticalLabelPosition=bottom;verticalAlign=top;html=1;outlineConnect=0;" parent="1" vertex="1">
          <mxGeometry x="593" y="590" width="30" height="60" as="geometry" />
        </mxCell>
        <mxCell id="OqWR8q6ZAvW1BArrp61l-40" value="" style="edgeStyle=none;rounded=0;orthogonalLoop=1;jettySize=auto;html=1;" parent="1" source="OqWR8q6ZAvW1BArrp61l-30" target="OqWR8q6ZAvW1BArrp61l-32" edge="1">
          <mxGeometry relative="1" as="geometry" />
        </mxCell>
        <mxCell id="OqWR8q6ZAvW1BArrp61l-30" value="Ingreso codigo autoparte" style="ellipse;whiteSpace=wrap;html=1;" parent="1" vertex="1">
          <mxGeometry x="683" y="610" width="90" height="60" as="geometry" />
        </mxCell>
        <mxCell id="OqWR8q6ZAvW1BArrp61l-39" style="edgeStyle=none;rounded=0;orthogonalLoop=1;jettySize=auto;html=1;exitX=1;exitY=0.5;exitDx=0;exitDy=0;" parent="1" source="OqWR8q6ZAvW1BArrp61l-32" target="OqWR8q6ZAvW1BArrp61l-34" edge="1">
          <mxGeometry relative="1" as="geometry" />
        </mxCell>
        <mxCell id="OqWR8q6ZAvW1BArrp61l-32" value="Verificar stock" style="ellipse;whiteSpace=wrap;html=1;" parent="1" vertex="1">
          <mxGeometry x="830" y="600" width="100" height="70" as="geometry" />
        </mxCell>
        <mxCell id="OqWR8q6ZAvW1BArrp61l-33" style="edgeStyle=none;rounded=0;orthogonalLoop=1;jettySize=auto;html=1;exitX=1;exitY=0.5;exitDx=0;exitDy=0;entryX=0;entryY=0.5;entryDx=0;entryDy=0;" parent="1" source="OqWR8q6ZAvW1BArrp61l-34" target="OqWR8q6ZAvW1BArrp61l-38" edge="1">
          <mxGeometry relative="1" as="geometry" />
        </mxCell>
        <mxCell id="OqWR8q6ZAvW1BArrp61l-34" value="dar de baja" style="ellipse;whiteSpace=wrap;html=1;" parent="1" vertex="1">
          <mxGeometry x="1000" y="592.5" width="130" height="85" as="geometry" />
        </mxCell>
        <mxCell id="OqWR8q6ZAvW1BArrp61l-35" value="&lt;font style=&quot;font-size: 11px;&quot;&gt;Baja Productos&lt;/font&gt;" style="shape=umlFrame;whiteSpace=wrap;html=1;pointerEvents=0;" parent="1" vertex="1">
          <mxGeometry x="573" y="540" width="727" height="170" as="geometry" />
        </mxCell>
        <mxCell id="OqWR8q6ZAvW1BArrp61l-36" style="rounded=0;orthogonalLoop=1;jettySize=auto;html=1;entryX=0;entryY=0.5;entryDx=0;entryDy=0;" parent="1" source="OqWR8q6ZAvW1BArrp61l-28" target="OqWR8q6ZAvW1BArrp61l-30" edge="1">
          <mxGeometry relative="1" as="geometry">
            <mxPoint x="623" y="632.2" as="sourcePoint" />
            <mxPoint x="727" y="607.2" as="targetPoint" />
          </mxGeometry>
        </mxCell>
        <mxCell id="OqWR8q6ZAvW1BArrp61l-38" value="Añadir datos a stock" style="ellipse;whiteSpace=wrap;html=1;" parent="1" vertex="1">
          <mxGeometry x="1200" y="600" width="100" height="70" as="geometry" />
        </mxCell>
        <mxCell id="OqWR8q6ZAvW1BArrp61l-41" value="Admin" style="shape=umlActor;verticalLabelPosition=bottom;verticalAlign=top;html=1;outlineConnect=0;" parent="1" vertex="1">
          <mxGeometry x="593" y="840" width="30" height="60" as="geometry" />
        </mxCell>
        <mxCell id="OqWR8q6ZAvW1BArrp61l-42" value="" style="edgeStyle=none;rounded=0;orthogonalLoop=1;jettySize=auto;html=1;" parent="1" source="OqWR8q6ZAvW1BArrp61l-43" target="OqWR8q6ZAvW1BArrp61l-45" edge="1">
          <mxGeometry relative="1" as="geometry" />
        </mxCell>
        <mxCell id="OqWR8q6ZAvW1BArrp61l-43" value="Ingreso codigo autoparte" style="ellipse;whiteSpace=wrap;html=1;" parent="1" vertex="1">
          <mxGeometry x="683" y="860" width="90" height="60" as="geometry" />
        </mxCell>
        <mxCell id="OqWR8q6ZAvW1BArrp61l-44" style="edgeStyle=none;rounded=0;orthogonalLoop=1;jettySize=auto;html=1;exitX=1;exitY=0.5;exitDx=0;exitDy=0;" parent="1" source="OqWR8q6ZAvW1BArrp61l-45" target="OqWR8q6ZAvW1BArrp61l-47" edge="1">
          <mxGeometry relative="1" as="geometry" />
        </mxCell>
        <mxCell id="OqWR8q6ZAvW1BArrp61l-45" value="Verificar stock" style="ellipse;whiteSpace=wrap;html=1;" parent="1" vertex="1">
          <mxGeometry x="830" y="850" width="100" height="70" as="geometry" />
        </mxCell>
        <mxCell id="OqWR8q6ZAvW1BArrp61l-46" style="edgeStyle=none;rounded=0;orthogonalLoop=1;jettySize=auto;html=1;exitX=1;exitY=0.5;exitDx=0;exitDy=0;entryX=0;entryY=0.5;entryDx=0;entryDy=0;" parent="1" source="OqWR8q6ZAvW1BArrp61l-47" target="OqWR8q6ZAvW1BArrp61l-50" edge="1">
          <mxGeometry relative="1" as="geometry" />
        </mxCell>
        <mxCell id="OqWR8q6ZAvW1BArrp61l-47" value="Ingreso datos a modificar" style="ellipse;whiteSpace=wrap;html=1;" parent="1" vertex="1">
          <mxGeometry x="1000" y="842.5" width="130" height="85" as="geometry" />
        </mxCell>
        <mxCell id="OqWR8q6ZAvW1BArrp61l-48" value="&lt;font style=&quot;font-size: 11px;&quot;&gt;Modificacion Productos&lt;/font&gt;" style="shape=umlFrame;whiteSpace=wrap;html=1;pointerEvents=0;" parent="1" vertex="1">
          <mxGeometry x="573" y="790" width="867" height="170" as="geometry" />
        </mxCell>
        <mxCell id="OqWR8q6ZAvW1BArrp61l-49" style="rounded=0;orthogonalLoop=1;jettySize=auto;html=1;entryX=0;entryY=0.5;entryDx=0;entryDy=0;" parent="1" source="OqWR8q6ZAvW1BArrp61l-41" target="OqWR8q6ZAvW1BArrp61l-43" edge="1">
          <mxGeometry relative="1" as="geometry">
            <mxPoint x="623" y="882.2" as="sourcePoint" />
            <mxPoint x="727" y="857.2" as="targetPoint" />
          </mxGeometry>
        </mxCell>
        <mxCell id="OqWR8q6ZAvW1BArrp61l-52" style="edgeStyle=none;rounded=0;orthogonalLoop=1;jettySize=auto;html=1;exitX=1;exitY=0.5;exitDx=0;exitDy=0;entryX=0;entryY=0.5;entryDx=0;entryDy=0;" parent="1" source="OqWR8q6ZAvW1BArrp61l-50" target="OqWR8q6ZAvW1BArrp61l-51" edge="1">
          <mxGeometry relative="1" as="geometry" />
        </mxCell>
        <mxCell id="OqWR8q6ZAvW1BArrp61l-50" value="verifico los datos" style="ellipse;whiteSpace=wrap;html=1;" parent="1" vertex="1">
          <mxGeometry x="1160" y="850" width="100" height="70" as="geometry" />
        </mxCell>
        <mxCell id="OqWR8q6ZAvW1BArrp61l-51" value="Modifico los datos y los almaceno en stock" style="ellipse;whiteSpace=wrap;html=1;" parent="1" vertex="1">
          <mxGeometry x="1300" y="842.5" width="120" height="77.5" as="geometry" />
        </mxCell>
        <mxCell id="OqWR8q6ZAvW1BArrp61l-54" value="Stock" style="shape=datastore;whiteSpace=wrap;html=1;" parent="1" vertex="1">
          <mxGeometry x="470" y="330" width="50" height="66.67" as="geometry" />
        </mxCell>
        <mxCell id="IKTK35JPIuyVhTVVb0rU-2" value="Listado&amp;nbsp;" style="ellipse;whiteSpace=wrap;html=1;" parent="1" vertex="1">
          <mxGeometry x="170" y="420" width="90" height="60" as="geometry" />
        </mxCell>
        <mxCell id="IKTK35JPIuyVhTVVb0rU-5" value="Modificar stock existente" style="ellipse;whiteSpace=wrap;html=1;" parent="1" vertex="1">
          <mxGeometry x="170" y="525" width="90" height="60" as="geometry" />
        </mxCell>
        <mxCell id="IKTK35JPIuyVhTVVb0rU-7" style="rounded=0;orthogonalLoop=1;jettySize=auto;html=1;exitX=1;exitY=0.5;exitDx=0;exitDy=0;entryX=0.15;entryY=0.95;entryDx=0;entryDy=0;entryPerimeter=0;" parent="1" source="IKTK35JPIuyVhTVVb0rU-2" target="OqWR8q6ZAvW1BArrp61l-54" edge="1">
          <mxGeometry relative="1" as="geometry" />
        </mxCell>
        <mxCell id="IKTK35JPIuyVhTVVb0rU-8" style="rounded=0;orthogonalLoop=1;jettySize=auto;html=1;exitX=1;exitY=0.5;exitDx=0;exitDy=0;entryX=0.85;entryY=0.95;entryDx=0;entryDy=0;entryPerimeter=0;" parent="1" source="IKTK35JPIuyVhTVVb0rU-5" target="OqWR8q6ZAvW1BArrp61l-54" edge="1">
          <mxGeometry relative="1" as="geometry" />
        </mxCell>
      </root>
    </mxGraphModel>
  </diagram>
  <diagram id="CrTVUbFZ7Ax1KTpQXWna" name="Página-2">
    <mxGraphModel dx="2482" dy="891" grid="1" gridSize="10" guides="1" tooltips="1" connect="1" arrows="1" fold="1" page="1" pageScale="1" pageWidth="827" pageHeight="1169" math="0" shadow="0">
      <root>
        <mxCell id="0" />
        <mxCell id="1" parent="0" />
        <mxCell id="lXHSg-LP22FjSHlvvJCk-7" style="edgeStyle=orthogonalEdgeStyle;rounded=0;orthogonalLoop=1;jettySize=auto;html=1;exitX=0.5;exitY=0.5;exitDx=0;exitDy=0;exitPerimeter=0;" parent="1" source="Abjkr7_hFtPR032Zt3XX-2" target="lXHSg-LP22FjSHlvvJCk-2" edge="1">
          <mxGeometry relative="1" as="geometry">
            <Array as="points">
              <mxPoint x="220" y="130" />
              <mxPoint x="220" y="130" />
            </Array>
          </mxGeometry>
        </mxCell>
        <mxCell id="Abjkr7_hFtPR032Zt3XX-2" value="Admin" style="shape=umlActor;verticalLabelPosition=bottom;verticalAlign=top;html=1;" parent="1" vertex="1">
          <mxGeometry x="80" y="100" width="30" height="60" as="geometry" />
        </mxCell>
        <mxCell id="lXHSg-LP22FjSHlvvJCk-1" value="InterfazAutopartes" style="shape=umlLifeline;perimeter=lifelinePerimeter;whiteSpace=wrap;html=1;container=0;dropTarget=0;collapsible=0;recursiveResize=0;outlineConnect=0;portConstraint=eastwest;newEdgeStyle={&quot;edgeStyle&quot;:&quot;elbowEdgeStyle&quot;,&quot;elbow&quot;:&quot;vertical&quot;,&quot;curved&quot;:0,&quot;rounded&quot;:0};" parent="1" vertex="1">
          <mxGeometry x="200" y="60" width="110" height="880" as="geometry" />
        </mxCell>
        <mxCell id="lXHSg-LP22FjSHlvvJCk-2" value="" style="html=1;points=[];perimeter=orthogonalPerimeter;outlineConnect=0;targetShapes=umlLifeline;portConstraint=eastwest;newEdgeStyle={&quot;edgeStyle&quot;:&quot;elbowEdgeStyle&quot;,&quot;elbow&quot;:&quot;vertical&quot;,&quot;curved&quot;:0,&quot;rounded&quot;:0};" parent="lXHSg-LP22FjSHlvvJCk-1" vertex="1">
          <mxGeometry x="45" y="70" width="10" height="760" as="geometry" />
        </mxCell>
        <mxCell id="lXHSg-LP22FjSHlvvJCk-8" value="CargarAutoparte(codigo:int, denominacion:String, descripcion: String,&amp;nbsp;&lt;span style=&quot;background-color: initial;&quot;&gt;categoria: String, marca: String,&amp;nbsp;&lt;/span&gt;&lt;div&gt;vehiculo: String, modelo: String,&amp;nbsp;&lt;span style=&quot;background-color: initial;&quot;&gt;precioUnitario: double,&amp;nbsp;&lt;/span&gt;&lt;/div&gt;&lt;div&gt;&lt;span style=&quot;background-color: initial;&quot;&gt;enlace: String, cantStock: int, stockMin: int )&lt;/span&gt;&lt;/div&gt;" style="text;html=1;align=center;verticalAlign=middle;resizable=0;points=[];autosize=1;strokeColor=none;fillColor=none;" parent="1" vertex="1">
          <mxGeometry x="-50" y="110" width="570" height="60" as="geometry" />
        </mxCell>
        <mxCell id="lXHSg-LP22FjSHlvvJCk-9" value="Sistema" style="shape=umlLifeline;perimeter=lifelinePerimeter;whiteSpace=wrap;html=1;container=0;dropTarget=0;collapsible=0;recursiveResize=0;outlineConnect=0;portConstraint=eastwest;newEdgeStyle={&quot;edgeStyle&quot;:&quot;elbowEdgeStyle&quot;,&quot;elbow&quot;:&quot;vertical&quot;,&quot;curved&quot;:0,&quot;rounded&quot;:0};" parent="1" vertex="1">
          <mxGeometry x="510" y="60" width="110" height="830" as="geometry" />
        </mxCell>
        <mxCell id="lXHSg-LP22FjSHlvvJCk-10" value="" style="html=1;points=[];perimeter=orthogonalPerimeter;outlineConnect=0;targetShapes=umlLifeline;portConstraint=eastwest;newEdgeStyle={&quot;edgeStyle&quot;:&quot;elbowEdgeStyle&quot;,&quot;elbow&quot;:&quot;vertical&quot;,&quot;curved&quot;:0,&quot;rounded&quot;:0};" parent="lXHSg-LP22FjSHlvvJCk-9" vertex="1">
          <mxGeometry x="51" y="70" width="10" height="140" as="geometry" />
        </mxCell>
        <mxCell id="twUbR0q9ou6mLbOk9pxU-1" value="NewAutoparte()" style="endArrow=block;endFill=1;html=1;edgeStyle=orthogonalEdgeStyle;align=left;verticalAlign=top;rounded=0;" parent="1" source="lXHSg-LP22FjSHlvvJCk-1" target="lXHSg-LP22FjSHlvvJCk-10" edge="1">
          <mxGeometry x="-0.8292" y="-10" relative="1" as="geometry">
            <mxPoint x="300" y="250" as="sourcePoint" />
            <mxPoint x="460" y="250" as="targetPoint" />
            <Array as="points">
              <mxPoint x="470" y="200" />
              <mxPoint x="470" y="200" />
            </Array>
            <mxPoint as="offset" />
          </mxGeometry>
        </mxCell>
        <mxCell id="twUbR0q9ou6mLbOk9pxU-3" value="" style="html=1;verticalAlign=bottom;endArrow=open;dashed=1;endSize=8;curved=0;rounded=0;" parent="1" edge="1">
          <mxGeometry relative="1" as="geometry">
            <mxPoint x="564.5" y="246" as="sourcePoint" />
            <mxPoint x="254.32352941176464" y="246" as="targetPoint" />
            <Array as="points">
              <mxPoint x="410" y="246" />
            </Array>
          </mxGeometry>
        </mxCell>
        <mxCell id="E4V7J8JkhCfptDaTravU-1" value="alt" style="shape=umlFrame;whiteSpace=wrap;html=1;pointerEvents=0;" parent="1" vertex="1">
          <mxGeometry x="210" y="353" width="410" height="214" as="geometry" />
        </mxCell>
        <mxCell id="E4V7J8JkhCfptDaTravU-7" value=":Valido" style="html=1;verticalAlign=bottom;endArrow=open;dashed=1;endSize=8;curved=0;rounded=0;fontSize=12;" parent="1" edge="1">
          <mxGeometry relative="1" as="geometry">
            <mxPoint x="555" y="398" as="sourcePoint" />
            <mxPoint x="260" y="398" as="targetPoint" />
          </mxGeometry>
        </mxCell>
        <mxCell id="JUj7VkfrFw5LNOjvmD_H-2" value=":Invalido" style="html=1;verticalAlign=bottom;endArrow=open;dashed=1;endSize=8;curved=0;rounded=0;fontSize=12;" parent="1" source="N1F2DoRoCD0e2EHzrXOq-4" edge="1">
          <mxGeometry relative="1" as="geometry">
            <mxPoint x="554.9999999999998" y="493.0000000000001" as="sourcePoint" />
            <mxPoint x="260.5" y="493" as="targetPoint" />
          </mxGeometry>
        </mxCell>
        <mxCell id="JUj7VkfrFw5LNOjvmD_H-4" value="" style="html=1;points=[[0,0,0,0,5],[0,1,0,0,-5],[1,0,0,0,5],[1,1,0,0,-5]];perimeter=orthogonalPerimeter;outlineConnect=0;targetShapes=umlLifeline;portConstraint=eastwest;newEdgeStyle={&quot;curved&quot;:0,&quot;rounded&quot;:0};" parent="1" vertex="1">
          <mxGeometry x="555" y="298" width="10" height="452" as="geometry" />
        </mxCell>
        <mxCell id="JUj7VkfrFw5LNOjvmD_H-9" value="agregoAutoparte()" style="endArrow=block;endFill=1;html=1;edgeStyle=orthogonalEdgeStyle;align=left;verticalAlign=top;rounded=0;" parent="1" edge="1">
          <mxGeometry x="-0.8272" y="39" relative="1" as="geometry">
            <mxPoint x="254" y="309.40999999999997" as="sourcePoint" />
            <mxPoint x="555" y="309.40999999999997" as="targetPoint" />
            <Array as="points">
              <mxPoint x="470" y="309.40999999999997" />
              <mxPoint x="470" y="309.40999999999997" />
            </Array>
            <mxPoint as="offset" />
          </mxGeometry>
        </mxCell>
        <mxCell id="JUj7VkfrFw5LNOjvmD_H-11" value="DatoValido()" style="endArrow=block;endFill=1;html=1;edgeStyle=orthogonalEdgeStyle;align=left;verticalAlign=top;rounded=0;fontSize=12;startSize=8;endSize=8;curved=1;" parent="1" edge="1">
          <mxGeometry x="0.5" y="-10" relative="1" as="geometry">
            <mxPoint x="260" y="417" as="sourcePoint" />
            <mxPoint x="260" y="417" as="targetPoint" />
            <Array as="points">
              <mxPoint x="260" y="437" />
              <mxPoint x="280" y="437" />
              <mxPoint x="280" y="417" />
            </Array>
            <mxPoint x="10" y="10" as="offset" />
          </mxGeometry>
        </mxCell>
        <mxCell id="JUj7VkfrFw5LNOjvmD_H-12" value="DatoInvalido()" style="endArrow=block;endFill=1;html=1;edgeStyle=orthogonalEdgeStyle;align=left;verticalAlign=top;rounded=0;fontSize=12;startSize=8;endSize=8;curved=1;" parent="1" edge="1">
          <mxGeometry x="0.5" y="-10" relative="1" as="geometry">
            <mxPoint x="263" y="516" as="sourcePoint" />
            <mxPoint x="263" y="516" as="targetPoint" />
            <Array as="points">
              <mxPoint x="263" y="536" />
              <mxPoint x="283" y="536" />
              <mxPoint x="283" y="516" />
            </Array>
            <mxPoint x="10" y="10" as="offset" />
          </mxGeometry>
        </mxCell>
        <mxCell id="N1F2DoRoCD0e2EHzrXOq-1" value="" style="html=1;verticalAlign=bottom;endArrow=open;dashed=1;endSize=8;curved=0;rounded=0;fontSize=12;exitX=0.995;exitY=0.496;exitDx=0;exitDy=0;exitPerimeter=0;" parent="1" source="E4V7J8JkhCfptDaTravU-1" edge="1">
          <mxGeometry relative="1" as="geometry">
            <mxPoint x="520" y="459.40999999999997" as="sourcePoint" />
            <mxPoint x="225" y="459.40999999999997" as="targetPoint" />
          </mxGeometry>
        </mxCell>
        <mxCell id="N1F2DoRoCD0e2EHzrXOq-2" value="frame" style="shape=umlFrame;whiteSpace=wrap;html=1;pointerEvents=0;" parent="1" vertex="1">
          <mxGeometry x="209" y="640" width="410" height="200" as="geometry" />
        </mxCell>
        <mxCell id="N1F2DoRoCD0e2EHzrXOq-3" value="ValidoAutoparte(): boolean" style="endArrow=block;endFill=1;html=1;edgeStyle=orthogonalEdgeStyle;align=left;verticalAlign=top;rounded=0;fontSize=12;startSize=8;endSize=8;curved=1;" parent="1" edge="1">
          <mxGeometry x="0.5" y="-10" relative="1" as="geometry">
            <mxPoint x="580" y="315" as="sourcePoint" />
            <mxPoint x="580" y="315" as="targetPoint" />
            <Array as="points">
              <mxPoint x="580" y="335" />
              <mxPoint x="600" y="335" />
              <mxPoint x="600" y="315" />
            </Array>
            <mxPoint x="10" y="10" as="offset" />
          </mxGeometry>
        </mxCell>
        <mxCell id="N1F2DoRoCD0e2EHzrXOq-4" value="" style="html=1;points=[[0,0,0,0,5],[0,1,0,0,-5],[1,0,0,0,5],[1,1,0,0,-5]];perimeter=orthogonalPerimeter;outlineConnect=0;targetShapes=umlLifeline;portConstraint=eastwest;newEdgeStyle={&quot;curved&quot;:0,&quot;rounded&quot;:0};" parent="1" vertex="1">
          <mxGeometry x="569" y="477" width="10" height="40" as="geometry" />
        </mxCell>
        <mxCell id="N1F2DoRoCD0e2EHzrXOq-5" value="ValidoExistencia(): boolean" style="endArrow=block;endFill=1;html=1;edgeStyle=orthogonalEdgeStyle;align=left;verticalAlign=top;rounded=0;fontSize=12;startSize=8;endSize=8;curved=1;" parent="1" edge="1">
          <mxGeometry x="0.5" y="-10" relative="1" as="geometry">
            <mxPoint x="570" y="610" as="sourcePoint" />
            <mxPoint x="570" y="610" as="targetPoint" />
            <Array as="points">
              <mxPoint x="570" y="630" />
              <mxPoint x="590" y="630" />
              <mxPoint x="590" y="610" />
            </Array>
            <mxPoint x="10" y="10" as="offset" />
          </mxGeometry>
        </mxCell>
        <mxCell id="N1F2DoRoCD0e2EHzrXOq-6" value=":Existente" style="html=1;verticalAlign=bottom;endArrow=open;dashed=1;endSize=8;curved=0;rounded=0;" parent="1" target="lXHSg-LP22FjSHlvvJCk-1" edge="1">
          <mxGeometry relative="1" as="geometry">
            <mxPoint x="555" y="690" as="sourcePoint" />
            <mxPoint x="475" y="690" as="targetPoint" />
          </mxGeometry>
        </mxCell>
        <mxCell id="N1F2DoRoCD0e2EHzrXOq-7" value="Invalido()" style="endArrow=block;endFill=1;html=1;edgeStyle=orthogonalEdgeStyle;align=left;verticalAlign=top;rounded=0;fontSize=12;startSize=8;endSize=8;curved=1;" parent="1" edge="1">
          <mxGeometry x="0.5" y="-10" relative="1" as="geometry">
            <mxPoint x="260" y="710" as="sourcePoint" />
            <mxPoint x="260" y="710" as="targetPoint" />
            <Array as="points">
              <mxPoint x="260" y="730" />
              <mxPoint x="280" y="730" />
              <mxPoint x="280" y="710" />
            </Array>
            <mxPoint x="10" y="10" as="offset" />
          </mxGeometry>
        </mxCell>
        <mxCell id="N1F2DoRoCD0e2EHzrXOq-8" value="" style="html=1;verticalAlign=bottom;endArrow=open;dashed=1;endSize=8;curved=0;rounded=0;entryX=-0.021;entryY=0.599;entryDx=0;entryDy=0;entryPerimeter=0;" parent="1" target="N1F2DoRoCD0e2EHzrXOq-2" edge="1">
          <mxGeometry relative="1" as="geometry">
            <mxPoint x="619" y="760" as="sourcePoint" />
            <mxPoint x="539" y="760" as="targetPoint" />
          </mxGeometry>
        </mxCell>
        <mxCell id="N1F2DoRoCD0e2EHzrXOq-9" value="" style="html=1;points=[[0,0,0,0,5],[0,1,0,0,-5],[1,0,0,0,5],[1,1,0,0,-5]];perimeter=orthogonalPerimeter;outlineConnect=0;targetShapes=umlLifeline;portConstraint=eastwest;newEdgeStyle={&quot;curved&quot;:0,&quot;rounded&quot;:0};" parent="1" vertex="1">
          <mxGeometry x="560" y="770" width="10" height="40" as="geometry" />
        </mxCell>
        <mxCell id="N1F2DoRoCD0e2EHzrXOq-10" value=":NoExistente" style="html=1;verticalAlign=bottom;endArrow=open;dashed=1;endSize=8;curved=0;rounded=0;" parent="1" edge="1">
          <mxGeometry relative="1" as="geometry">
            <mxPoint x="560" y="789.47" as="sourcePoint" />
            <mxPoint x="259" y="789.47" as="targetPoint" />
          </mxGeometry>
        </mxCell>
        <mxCell id="N1F2DoRoCD0e2EHzrXOq-11" value="Valido()" style="endArrow=block;endFill=1;html=1;edgeStyle=orthogonalEdgeStyle;align=left;verticalAlign=top;rounded=0;fontSize=12;startSize=8;endSize=8;curved=1;" parent="1" edge="1">
          <mxGeometry x="0.5" y="-10" relative="1" as="geometry">
            <mxPoint x="260" y="810" as="sourcePoint" />
            <mxPoint x="260" y="810" as="targetPoint" />
            <Array as="points">
              <mxPoint x="260" y="830" />
              <mxPoint x="280" y="830" />
              <mxPoint x="280" y="810" />
            </Array>
            <mxPoint x="10" y="10" as="offset" />
          </mxGeometry>
        </mxCell>
      </root>
    </mxGraphModel>
  </diagram>
  <diagram id="syRNrD-BzX1J-qSzGkOT" name="Página-3">
    <mxGraphModel dx="1300" dy="700" grid="1" gridSize="10" guides="1" tooltips="1" connect="1" arrows="1" fold="1" page="1" pageScale="1" pageWidth="827" pageHeight="1169" math="0" shadow="0">
      <root>
        <mxCell id="0" />
        <mxCell id="1" parent="0" />
        <mxCell id="JQ8kB0INROH3t47Jqff9-2" style="edgeStyle=none;rounded=0;orthogonalLoop=1;jettySize=auto;html=1;exitX=1;exitY=0.5;exitDx=0;exitDy=0;entryX=0;entryY=0.5;entryDx=0;entryDy=0;endArrow=none;endFill=0;" edge="1" parent="1" source="p7VEL9SeGhBi2B4cxmb_-1" target="JQ8kB0INROH3t47Jqff9-1">
          <mxGeometry relative="1" as="geometry" />
        </mxCell>
        <mxCell id="D1DB82ZhpqGbavGYCFop-1" style="edgeStyle=none;rounded=0;orthogonalLoop=1;jettySize=auto;html=1;exitX=1;exitY=0.25;exitDx=0;exitDy=0;" edge="1" parent="1" source="p7VEL9SeGhBi2B4cxmb_-1">
          <mxGeometry relative="1" as="geometry">
            <mxPoint x="430" y="225.71428571428578" as="targetPoint" />
          </mxGeometry>
        </mxCell>
        <mxCell id="p7VEL9SeGhBi2B4cxmb_-1" value=":InterfazAutoparte" style="rounded=0;whiteSpace=wrap;html=1;" vertex="1" parent="1">
          <mxGeometry x="170" y="210" width="120" height="60" as="geometry" />
        </mxCell>
        <mxCell id="JQ8kB0INROH3t47Jqff9-1" value=":Sistema" style="rounded=0;whiteSpace=wrap;html=1;" vertex="1" parent="1">
          <mxGeometry x="440" y="210" width="120" height="60" as="geometry" />
        </mxCell>
        <mxCell id="D1DB82ZhpqGbavGYCFop-3" style="edgeStyle=orthogonalEdgeStyle;rounded=0;orthogonalLoop=1;jettySize=auto;html=1;entryX=0.5;entryY=0;entryDx=0;entryDy=0;endArrow=none;endFill=0;" edge="1" parent="1" source="1nirOtBBazPumxAVz5QB-1" target="p7VEL9SeGhBi2B4cxmb_-1">
          <mxGeometry relative="1" as="geometry">
            <mxPoint x="293" y="120" as="sourcePoint" />
          </mxGeometry>
        </mxCell>
        <mxCell id="1nirOtBBazPumxAVz5QB-1" value="Admin" style="shape=umlActor;verticalLabelPosition=bottom;verticalAlign=top;html=1;outlineConnect=0;" vertex="1" parent="1">
          <mxGeometry x="340" y="50" width="50" height="80" as="geometry" />
        </mxCell>
      </root>
    </mxGraphModel>
  </diagram>
</mxfile>
